<?xml version="1.0" encoding="utf-8"?>
<!-- Generator: Adobe Illustrator 24.1.2, SVG Export Plug-In . SVG Version: 6.00 Build 0)  -->
<svg version="1.1" id="Layer_1" xmlns="http://www.w3.org/2000/svg" xmlns:xlink="http://www.w3.org/1999/xlink" x="0px" y="0px"
	 viewBox="0 0 113.6 191.2" style="enable-background:new 0 0 113.6 191.2;" xml:space="preserve">
<style type="text/css">
	.st0{fill:#FFFFFF;}
</style>
<g id="FlryuE.tif">
	<g>
		<path d="M104.3,175.1c0,0.2,0,0.5,0,0.7c-4.6,2.4-9.2,4.9-13.9,7c-2.6,1.1-5.6,1.3-8.4,2c-2.2,0-4.5,0-6.7,0
			c-3.8-1-7.7-1.7-11.3-3c-10.9-4-18.6-12.1-25.1-21.3c-3.3-4.6-6.2-9.2-6.1-15.5c0.2-11.9-0.3-23.8-0.6-35.7c-0.1-4-2.2-6-6.2-6
			c-3.8,0-7.7,0-12.4,0c-0.3-6-0.5-11.8-0.8-17.6c-0.2-5.9-0.6-11.9-0.7-17.8c0-3.2,0.5-6.4,0.8-10.5c5.3,0,11.4,0,17.8,0
			c0-14,0-27.2,0-41C41.7,23,52.9,26,65.1,25.1c10.3-0.8,18.6-4.7,23.5-14.3c0.9-1.8,1.6-3.8,2.7-6.2c0.8,1.7,1.4,2.8,1.8,3.9
			c2.1,7.8,4.8,15.6,6,23.6c2.8,17.8-0.5,35.1-5.6,52.1c-4.3,14.3-6.9,28.8-7.1,43.8C86,146.2,93.7,161.2,104.3,175.1z M48.5,51.3
			c0,7.1,6,13.2,13,13.2c6.8,0,12.6-5.5,12.6-12.1c0-7.5-6.2-13.8-13.4-13.7C54,38.9,48.5,44.6,48.5,51.3z"/>
		<path class="st0" d="M6.7,57.3c0,16.1,0,31.8,0,47.7c1.9-0.1,3.1-0.2,3.6-0.3c-0.4-2.1-1.3-5-1-5.2c3.4-1.4,2.3-4.3,2.3-6.6
			c0-3.6-0.3-7.2-0.4-10.8c-0.1-5.9,0-11.9,0-17.8c-7.4-1.6,1.1-4.9-1.2-7C8.9,57.3,7.7,57.3,6.7,57.3z"/>
		<path class="st0" d="M82,184.8c2.8-0.6,5.8-0.8,8.4-2c4.8-2,9.3-4.6,13.9-7c0,3,0,6,0,9C96.9,184.8,89.4,184.8,82,184.8z"/>
		<path class="st0" d="M48.5,51.3c0-6.7,5.5-12.4,12.2-12.6c7.2-0.2,13.4,6.2,13.4,13.7c0,6.6-5.8,12.1-12.6,12.1
			C54.5,64.5,48.6,58.4,48.5,51.3z"/>
		<path d="M6.7,57.3c1,0,2.2,0,3.3,0c2.3,2.2-6.2,5.4,1.2,7c0,5.9-0.1,11.8,0,17.8c0,3.6,0.4,7.2,0.4,10.8c0,2.4,1,5.2-2.3,6.6
			c-0.3,0.1,0.6,3.1,1,5.2c-0.5,0-1.7,0.1-3.6,0.3C6.7,89,6.7,73.3,6.7,57.3z"/>
	</g>
</g>
</svg>
